/* XPM */
static char *base1706201886[] = {
/* columns rows colors chars-per-pixel */
"24 24 156 2 ",
"   c #F890F8",
".  c #685838",
"X  c #201800",
"o  c #483038",
"O  c #985808",
"+  c #807040",
"@  c #B0A860",
"#  c #E8E078",
"$  c #988850",
"%  c #C0C870",
"&  c #F8F0A0",
"*  c #307838",
"=  c #403818",
"-  c #F0C860",
";  c #60B810",
":  c #787050",
">  c #D88808",
",  c #908868",
"<  c #686038",
"1  c #C06808",
"2  c #E0A018",
"3  c #A85000",
"4  c #F80000",
"5  c #B0A898",
"6  c #A09880",
"7  c #F0C040",
"8  c #F8F800",
"9  c #F8F8F8",
"0  c #105040",
"q  c #104030",
"w  c #105828",
"e  c #287828",
"r  c #C86800",
"t  c #F0B830",
"y  c #F8E888",
"u  c #206828",
"i  c #40A830",
"p  c #E88800",
"a  c #F8F8B8",
"s  c #F8D058",
"d  c #389030",
"f  c #D87800",
"g  c #F8B810",
"h  c #A86000",
"j  c #804800",
"k  c #A898A0",
"l  c #C0A8B8",
"z  c #908080",
"x  c #787060",
"c  c #584038",
"v  c #582800",
"b  c #984800",
"n  c #C07818",
"m  c #403038",
"M  c #B08050",
"N  c #685020",
"B  c #E8A878",
"V  c #F8C880",
"C  c #300808",
"Z  c #58D038",
"A  c #186850",
"S  c #208060",
"D  c #685000",
"F  c #206838",
"G  c #F8D880",
"H  c #B0A060",
"J  c black",
"K  c #F8F8D8",
"L  c #484010",
"P  c #787030",
"I  c #805848",
"U  c #282008",
"Y  c #100810",
"T  c #787038",
"R  c #403840",
"E  c #505050",
"W  c #606060",
"Q  c #787078",
"!  c #787870",
"~  c #404048",
"^  c #D0D0C8",
"/  c #383038",
"(  c #908890",
")  c gray66",
"_  c gray3",
"`  c gray20",
"'  c #333366",
"]  c #94C0C0",
"[  c #C0C094",
"{  c #663333",
"}  c #33B600",
"|  c #80FF00",
" . c #330000",
".. c #003A00",
"X. c #6EFF00",
"o. c #48DB00",
"O. c #80DB00",
"+. c #5CFF00",
"@. c #80B600",
"#. c #7EAAC0",
"$. c #946633",
"%. c #7EAA94",
"&. c #483A00",
"*. c #006600",
"=. c #5CDB00",
"-. c #6EB600",
";. c #5C6600",
":. c #1D9000",
">. c #5CB600",
",. c #6EDB00",
"<. c #486600",
"1. c #6E9000",
"2. c #C0C0C0",
"3. c white",
"4. c #C0C0AA",
"5. c #7E4D33",
"6. c #333325",
"7. c #68FF00",
"8. c #80C125",
"9. c #4EC100",
"0. c #80FF14",
"q. c #4E3333",
"w. c #80FF0B",
"e. c #5CA014",
"r. c #74A02C",
"t. c #335A1D",
"y. c #74FF14",
"u. c #74FF00",
"i. c #74FF0B",
"p. c #5C5A33",
"a. c #336694",
"s. c #C0AA7E",
"d. c #74C125",
"f. c #687F33",
"g. c #5CE114",
"h. c #42A00B",
"j. c #68FF14",
"k. c #94AA7E",
"l. c #337F14",
"z. c #80E11D",
"x. c #74E114",
"c. c #5C7F1D",
"v. c #5CE100",
"b. c #4D7EAA",
"n. c #74E11D",
"m. c #337F25",
"M. c #4EC10B",
"N. c #68E11D",
"B. c #6694C0",
"V. c #C09466",
"C. c #5CE10B",
"Z. c #334D7E",
"A. c #AAC0C0",
"S. c #74E10B",
"D. c #74E100",
"F. c #74A01D",
/* pixels */
"0 q q w w w w w w w q q q q q q q 0 0 e w q q q ",
"q w w u u e e e e e w q q q q 0 w u u w q q q q ",
"w w u u e e i w q u u u u u u u u u e q q q 0 0 ",
"w u w w q q e i e q w w w w w w q e d i q q 0 0 ",
"w u q q q q e d i q q q q q q q q q e d q 0 q q ",
"w u q q q q q e d q q q 0 0 0 q 0 q q e q q 0 q ",
"w u w q q q q q e q q q w w e e e e e e w q q q ",
"q u e i e w q q q w w e e e i i Z Z i i e w q q ",
"q w e e e i i i i i i i i i i i i e e e e e w q ",
"q q w w e e e e e e e e e e 0 0 q q q q w e w q ",
"q e e q q q q q q q q q q q 0 0 q q q q q w w w ",
"q i e q q q 0 A q q q q q S q q q 0 0 q q q w w ",
"q i q q q q 0 A 0 q q q S e q q 0 A S A q q w w ",
"q q q q q q q 0 A 0 q e i e q q 0 A A S q w w w ",
"q q q q q q q q q A 0 i e q q q q 0 0 0 q u w w ",
"q q w e i i i i i e e e w q q q q q q q e e w q ",
"q e i Z Z Z Z Z Z Z Z Z Z e w w w w w e d e q 0 ",
"w i Z e w q d i e q e d i Z Z Z Z i i i e q q 0 ",
"e i e w q q A d i e q q q e e e e e e w q q 0 0 ",
"w i e q q 0 A e e i q q q q q q q q q q 0 q 0 q ",
"w e e q q q q q 0 q q q q q q q F F F A q A 0 q ",
"w w e i w w w w w w 0 q q 0 F e d i i e F q A q ",
"q w w e i i e e F e e d d d d e F w w i F q 0 A ",
"q q q w w e i i d d d e F F F F w q w e e q q 0 "
};
