/* XPM */
static char *bush1706201869[] = {
/* columns rows colors chars-per-pixel */
"24 24 11 1 ",
"  c #003028",
". c #105828",
"X c #104030",
"o c #287828",
"O c #206838",
"+ c #105040",
"@ c #186850",
"# c #389030",
"$ c #40A830",
"% c #58D038",
"& c #70F840",
/* pixels */
"+XX.oo.XXXX....ooooo.XXX",
"X.ooo$$o. $$o.  X...XXXX",
"..XX..XX+$$.   ooo$$$X++",
"....$$oo.X.$%%%%$ooo$$X+",
"oX$o..o%$$&&%&&&&&$XXoo.",
"X$%$$ooo$&%$oooo$$$$$X..",
"o%$o%%%$$ooooo$%&&%%%$.X",
"o$oo&%%%$$$$%%$o$$&&%%$X",
"ooo&%%&%o%&%%%%ooo$$&%%X",
"oX.&%&&%o%&%%&&%ooo%o$%$",
"Xo%&&&%$o%%&%&&%o$$$$o$%",
"X$&&&%$oo%%&&%&&%$%%o$$$",
"X%&&o$o%$o%&&&&&%$%&%o$$",
"o%&%oo%&$&o%&&%&%$%&%Xo$",
"o%o$$o&&$&o%%&&&%$%&%XXo",
"oo%$oX&&$%&o%&&&%$o%%.Xo",
"X$$oo.&%o$&&$%&%o$$o$o$$",
".$oooo&%oo%%&o%%o%%%oooo",
"ooX$$.%..$$o%%.$%&&&$$oo",
".$X%$XXXX$$X$o..%&&&%o..",
"+XoXX$$X$$oX$o.oo$$%%..X",
"+++$.%$XX$XX$o+oooooXXXX",
"+++o$%XXXoXoo....o.XOX+@",
"XXX..XX$##o.OOoooo..XXX+"
};
