/* XPM */
static char *diamond1707313487[] = {
/* columns rows colors chars-per-pixel */
"24 24 64 1 ",
"  c #110C03",
". c #329229",
"X c #9C8B50",
"o c #9F1605",
"O c #9EC839",
"+ c #104A2E",
"@ c #B5E7FF",
"# c #564640",
"$ c #B2B0A5",
"% c #39FF42",
"& c #AA5C0C",
"* c #6601A3",
"= c #F59907",
"- c #768D41",
"; c #FCD511",
": c #496933",
"> c #B5A257",
", c #1B6830",
"< c #DCDFD2",
"1 c #2D240A",
"2 c #8F00C7",
"3 c #735A1F",
"4 c #FDF6A3",
"5 c #1AA0E0",
"6 c #BC8E30",
"7 c #FF67FF",
"8 c #F8C458",
"9 c #420043",
"0 c #47AD32",
"q c #AE9858",
"w c #C2F278",
"e c #2D4922",
"r c #DBB19A",
"t c #5BD835",
"y c #FF550B",
"u c #4D3B19",
"i c #8AAB4D",
"p c #287A2A",
"a c #ED1DFD",
"s c #7B6736",
"d c #FFF8FF",
"f c #288F68",
"g c #E51803",
"h c #C7CD73",
"j c #0E5347",
"k c #704911",
"l c #887543",
"z c #CFB466",
"x c #8D877E",
"c c #FFEA40",
"v c #646361",
"b c #B7B065",
"n c #317300",
"m c #FFD1FF",
"M c #473139",
"N c #B806E5",
"B c #6B5A39",
"V c #FFFFC8",
"C c #EEE080",
"Z c #300471",
"A c #AD9C63",
"S c #FF94FF",
"D c #73FE47",
"F c #7D388C",
/* pixels */
"++++++F9*aSSmmSNNNjp++++",
"++++pp9F**NNNNNNSN:j++++",
"++,,F*22*ZZZ9Z22NmNNj+jj",
"+,+j*Fa2ZZZZ99Z2NNdN#jjj",
"+,**772Z99ZZ99ZZ**7SNNj+",
"+,*7a72Z99ZZ99ZN77S7dNj+",
"FZaNa7a*Z9ZZZZaSmmaaadFZ",
"ZFNNa7a*ZZ**NNaSmSa*NNaZ",
"*NNNNaaNZ***NNa777****ZZ",
"***NNNaN****NNaa7aN**ZZN",
"ZZ***NN*****NaaaaaNN*Naa",
"ZZZ*******ZZaaaaaaNNN*22",
"**NN****ZZ22aaaaaaNNN**N",
"FNNNNNN*ZZ27aaaaaaN*****",
"mmmmmS7N2277N2ammSNNNN**",
"Smdmmm7N7222FN7mmmSNNN**",
"a7mmmm7a77dmmmddddSNN*ZZ",
"FaSmmSa77mmdSmmddmSN**ZZ",
".v77SaaammSmSSmmm772ZZjj",
"M.F*aaa7mmSmSSmm7722ZZj+",
"+p.ZNNaSmm7S7Sm772#Z+,j+",
"++..ZNaSSm77777722Z#,+j+",
"+++p.#2777aN*N77ZZ+.p++,",
"++++M.227aNN**22ZZ+.p+++"
};
