/* XPM */
static char *exit1707338424[] = {
/* columns rows colors chars-per-pixel */
"24 24 20 1 ",
"  c black",
". c #003038",
"X c #105828",
"o c #104030",
"O c #206828",
"+ c #287828",
"@ c #206838",
"# c #105040",
"$ c #186850",
"% c #005868",
"& c #405860",
"* c #389030",
"= c #40A830",
"- c #587888",
"; c #0088A8",
": c #08A8D8",
"> c #08B8F8",
", c #40B8F8",
"< c #78D0F8",
"1 c #B0E0F8",
/* pixels */
"#ooXXXXXX......oo##+Xooo",
"oXXOO++%::>>>>::%OOXoooo",
"XXOO+%:;%.    .%;:%ooo##",
"XOXX;:..        ..:;oo##",
"XOo%:.     %%     .:%#oo",
"XO.>.     .,,.     .>.#o",
"XO:%      ;,,;      %:oo",
"o%;    >. :,,:  :.   ;%o",
"o;%    %,.;,,;.:;    %;o",
"o:.     %,.<<.,;     .:o",
".>   .%%.%,11<%%%%.   >.",
".>  %,,,,<1111<,,,,%  >.",
".>  %,,,<<1111<<,,,%  >.",
".>   .;;;%<11<.-;;.   >.",
"o:.      ,&<<&<.     .:X",
"o:%     :-%<<%%,.    %:o",
"o%:    :; :<<: %,.   :%#",
"X=>.   .  ;,,;  .   .>o#",
"+=.:.     .,,.     .:.##",
"X=+;>.     ;;     .>;o#o",
"X++o%:%.        .%:%o$#o",
"XX+=X%;:%.    .%:;%+@o$o",
"oXX+==.%::>>>>::%.X=@o#$",
"oooXX+==*......@XoX++oo#"
};
