/* XPM */
static char *idle21707407693[] = {
/* columns rows colors chars-per-pixel */
"24 24 12 1 ",
"  c black",
". c #484010",
"X c #787030",
"o c #805848",
"O c #F8F038",
"+ c #B0A060",
"@ c #C08858",
"# c #0058C0",
"$ c #F800F8",
"% c #00C0F8",
"& c #F8D880",
"* c #F8F8F8",
/* pixels */
"$$$$$$$$$.X++&&&&***&.$$",
"$$$$$$$$.XXXX++&&***&+.$",
"$$$$$$$..X+&&******&&+X.",
"$$$$$..X+&+X...@@@@....X",
"$$$$.X++XX@.ooooOOOO@ ..",
"$$$$X+.X&@O.o@@@.@OOO@ .",
"$$$ .. .&@O@@@@@@.@OOO@ ",
"$$$ ## @.@O@&ooo&o.@OO.$",
"$$ @o #  @O@&&&&&o@.@.$$",
"$ o&&@   @@&&oo@@&o $$$$",
"$ @&&@o$   o@&&&&o $$$$$",
"$o&&@o$$$ ## oooo $$  $$",
" @@& $$$ #%#+++ #   && $",
"o@@@o $ #%#+&&+ # o @& $",
" o@oo $ ##  oo   @o o@ $",
"$    $$$ XXX  XX  @o @ $",
"$$$$$$$ X+XXX+X++     $$",
"$$$$$$X++++X  XX++$$$$$$",
"$$$$$X+&&+X $$ X++X$$$$$",
"$$$$X+&&&+ $$  XXX $$$$$",
"$$$$X+&&+X $$ XXXX $$$$$",
"$$$ +  +X $$$ XX... $$$$",
"$$$  oo.X $$$$ .oo. $$$$",
"$$$ o@@o. $$$$.oo@o.$$$$"
};
