/* XPM */
static char *idle11707407667[] = {
/* columns rows colors chars-per-pixel */
"24 24 12 1 ",
"  c black",
". c #484010",
"X c #787030",
"o c #805848",
"O c #F8F038",
"+ c #B0A060",
"@ c #C08858",
"# c #0058C0",
"$ c #F800F8",
"% c #00C0F8",
"& c #F8D880",
"* c #F8F8F8",
/* pixels */
"$$$$$$$$$$..X++&&&+X.$$$",
"$$$$$$$$$.X++&&&&***&.$$",
"$$$$$$$$.XXXX++&&***&+.$",
"$$$$$$$..X+&&******&&+X.",
"$$$$$..X+&+X...@@@@....X",
"$$$$.X++XX@.o. .OOOO@ ..",
"$$$$X+.X&@O.o*%*.@OOO@ .",
"$$$ .. .&@O@@*# @.@OOO@ ",
"$$$ ## @.@O@&**#&o.@OO.$",
"$$ @o #  @O@&&&&&o@.@.$$",
"$ o&&@   @@&&**@@&o $$$$",
"$ @&&@o$   o@&&&&o $$  $",
"$o&&@o$$  ## oooo    && ",
" @@& $$ #%%#+++ # @o @& ",
"o@@@o $  ##+&&+X  @o o@ ",
" o@oo $$$   oo  $  @o @ ",
"$    $$$ XXX  XX $$    $",
"$$$$$$$ X+XXX+X++ $$$$$$",
"$$$$$$X++++X  XX++X$$$$$",
"$$$$$X+&+XX $ XX++ $$$$$",
"$$$$X+&&&+ $$  XXX $$$$$",
"$$$ +  &+X $$ XXX..$$$$$",
"$$$  oo.X $$$ X.oo. $$$$",
"$$$ o@@o. $$$$ oo@o.$$$$"
};
