/* XPM */
static char *player11707334116[] = {
/* columns rows colors chars-per-pixel */
"24 24 21 1 ",
"  c black",
". c #105828",
"X c #104030",
"o c #206828",
"O c #287828",
"+ c #206838",
"@ c #484010",
"# c #787030",
"$ c #105040",
"% c #186850",
"& c #805848",
"* c #389030",
"= c #40A830",
"- c #58D038",
"; c #F8F038",
": c #B0A060",
"> c #C08858",
", c #0058C0",
"< c #00C0F8",
"1 c #F8D880",
"2 c #F8F8F8",
/* pixels */
"$XX......@#::11112221@XX",
"X..ooOOO@####::112221:@X",
"..ooOO=@@#:1122222211:#@",
".o..X@@#:1:#@@@>>>>@@@@#",
".oXX@#::##>@&&&&;;;;> @@",
".oXX#:@#1>;@&>>>@>;;;> @",
".o. @@ @1>;>>>>>>@>;;;> ",
"XoO ,, >@>;>1&&&1&@>;;@X",
"X. >& ,  >;>11111&>@>@.X",
"X &11>   >>11&&>>1& .O.X",
"X >11>&X   &>1111& XX...",
"X&11>&$%X ,, &&&& $X  ..",
" >>1 X$% ,<,::: ,   11 .",
"&>>>& X ,<,:11: , & >1 .",
" &>&& X ,,  &&   >& &> .",
"X    === ###  ##  >& > X",
"XO=---- #:###:#::     X$",
".=-O.X#::::#  ##::==OXX$",
"O=O.X#:11:# XO #::#.XX$$",
".=OX#:111: XX  ### X$X$X",
".OOX#:11:# XX #### %X%$X",
"..O :  :# $XX ##@@@ +X%X",
"X..  &&@# O*** @&&@ +X$%",
"XXX &>>&@ *O++@&&>&@OXX$"
};
