/* XPM */
static char *walk11707407709[] = {
/* columns rows colors chars-per-pixel */
"24 24 13 1 ",
"  c black",
". c #484010",
"X c #787030",
"o c #805848",
"O c #F8F038",
"+ c #B0A060",
"@ c #C08858",
"# c #0058C0",
"$ c #F800F8",
"% c #0088F8",
"& c #00C0F8",
"* c #F8D880",
"= c #F8F8F8",
/* pixels */
"$$$$$$.XX+****===*.$$$$$",
"$$$$$..XXXX++*===*+.$$$$",
"$$$$$..X+*=====**@@@@$$$",
"$$...X+*+....@o@@OOOO@$$",
"$$XX++..@o@O.@#oOOOOOO@$",
"$$.+..OOo@OO.*&=o@.@OO@$",
"$$ .  OOoO..@*=# o..@@.$",
"$$$$$ @O@.o@***==o$.$$$$",
"$$$$$    @@@*****o$$$$$$",
"$$$$ %&&# @***@ooo$$$$$$",
"$$$$ #%&#% o@***@$$$$$$$",
"$$$ #&&&%&#+ oooo$$$$$$$",
"$$$  &%#%& XXX $$$$$$$$$",
"$$$ &%oo& ++X $  $$$$$$$",
"$$$$ @*@o  oo  ** $$$$$$",
"$$$$ @**@      @* $$$$$$",
"$$$$$ @***@ XX o@ $$$$$$",
"$$$$$$ ***@oXXX @ $$$$$$",
"$$$$$$ o@oo XX+  $$$$$$$",
"$$$$$   oo   X+X$$$$$$$$",
"$$$$ **+X $$ ++X$$$$$$$$",
"$$$ +*++ $$ X+X $$$$$$$$",
"$$ Xoo. $$$ X .o.$$$$$$$",
"$$ o@@o.$$$ .oooo.$$$$$$"
};
