/* XPM */
static char *walkl11708435743[] = {
/* columns rows colors chars-per-pixel */
"24 24 13 1 ",
"  c black",
". c #484010",
"X c #787030",
"o c #805848",
"O c #F8F038",
"+ c #B0A060",
"@ c #C08858",
"# c #0058C0",
"$ c #F800F8",
"% c #0088F8",
"& c #00C0F8",
"* c #F8D880",
"= c #F8F8F8",
/* pixels */
"$$$$$.*===****+XX.$$$$$$",
"$$$$.+*===*++XXXX..$$$$$",
"$$$@@@@**=====*+X..$$$$$",
"$$@OOOO@@o@....+*+X...$$",
"$@OOOOOOo#@.O@o@..++XX$$",
"$@OO@.@o=&*.OO@oOO..+.$$",
"$.@@..o #=*@..OoOO  . $$",
"$$$$.$o==***@o.@O@ $$$$$",
"$$$$$$o*****@@@    $$$$$",
"$$$$$$ooo@***@ #&&% $$$$",
"$$$$$$$@***@o %#&%# $$$$",
"$$$$$$$oooo +#&%&&&# $$$",
"$$$$$$$$$ XXX &%#%&  $$$",
"$$$$$$$  $ X++ &oo%& $$$",
"$$$$$$ **  oo  o@*@ $$$$",
"$$$$$$ *@      @**@ $$$$",
"$$$$$$ @o XX @***@ $$$$$",
"$$$$$$ @ XXXo@*** $$$$$$",
"$$$$$$$  +XX oo@o $$$$$$",
"$$$$$$$$X+X   oo   $$$$$",
"$$$$$$$$X++ $$ X+** $$$$",
"$$$$$$$$ X+X $$ ++*+ $$$",
"$$$$$$$.o. X $$$ .ooX $$",
"$$$$$$.oooo. $$$.o@@o $$"
};
