/* XPM */
static char *walkl21708435799[] = {
/* columns rows colors chars-per-pixel */
"24 24 13 1 ",
"  c black",
". c #484010",
"X c #787030",
"o c #805848",
"O c #F8F038",
"+ c #B0A060",
"@ c #C08858",
"# c #0058C0",
"$ c #F800F8",
"% c #0088F8",
"& c #00C0F8",
"* c #F8D880",
"= c #F8F8F8",
/* pixels */
"$$$.*===****+XX.$$$$$$$$",
"$$.+*===*++XXXX..$$$$$$$",
"$$X+***=====*+X..$$$$$$$",
"$@@@@@@.@    +*+X..$$$$$",
"@OOOOO.#@.O@o@  ++X.$$$$",
"OOOO@.=&*.O@*oOO  +X$$$$",
"OO@.o #=*@Oo*oOO    $$$$",
"@@.$o==***@oo@O@ &% $$$$",
"$$$$o*****@@@   &&&%% $$",
"$$$$ooo@***@ ##&%&%&&% $",
"$$$$$@***@o ## ## &o@  $",
"$  $$oooo  %###  #o@*@$$",
" **  $  %++ %%# $$o@**$$",
" *@ o ## #**  %% $$o** $",
" @o o@o# oo      $ **@ $",
" @ o@o     +*+X $ o@@@o$",
"$      $$X+**+X $ oo@o $",
"$$$$$$$$X***+ X  $    $$",
"$$$$$$$$+**X XXX $$$$$$$",
"$$$$$$$X+X  $ X   $$$$$$",
"$$$$$$$X++ $$ XXX+ $$$$$",
"$$$$$$$ X+X $$ XXXX $$$$",
"$$$$$$.o. X $$$ ...X $$$",
"$$$$$.o@@o. $$$.ooo. $$$"
};
