/* XPM */
static char *walk21707407723[] = {
/* columns rows colors chars-per-pixel */
"24 24 13 1 ",
"  c black",
". c #484010",
"X c #787030",
"o c #805848",
"O c #F8F038",
"+ c #B0A060",
"@ c #C08858",
"# c #0058C0",
"$ c #F800F8",
"% c #0088F8",
"& c #00C0F8",
"* c #F8D880",
"= c #F8F8F8",
/* pixels */
"$$$$$$$$.XX+****===*.$$$",
"$$$$$$$..XXXX++*===*+.$$",
"$$$$$$$..X+*=====***+X$$",
"$$$$$..X+*+    @.@@@@@@$",
"$$$$.X++  @o@O.@#.OOOOO@",
"$$$$X+  OOo*@O.*&=.@OOOO",
"$$$$    OOo*oO@*=# o.@OO",
"$$$$ %& @O@oo@***==o$.@@",
"$$ %%&&&   @@@*****o$$$$",
"$ %&&%&%&## @***@ooo$$$$",
"$  @o& ## ## o@***@$$$$$",
"$$@*@o#  ###%  oooo$$  $",
"$$**@o$$ #%% ++%  $  ** ",
"$ **o$$ %%  **# ## o @* ",
"$ @** $      oo #o@o o@ ",
"$o@@@o $ X+*+     o@o @ ",
"$ o@oo $ X+**+X$$      $",
"$$    $  X +***X$$$$$$$$",
"$$$$$$$ XXX X**+$$$$$$$$",
"$$$$$$   X $  X+X$$$$$$$",
"$$$$$ +XXX $$ ++X$$$$$$$",
"$$$$ XXXX $$ X+X $$$$$$$",
"$$$ X... $$$ X .o.$$$$$$",
"$$$ .ooo.$$$ .o@@o.$$$$$"
};
